HIERARCHY
ROOT Model
{
	OFFSET 0 0 0
	CHANNELS 6 Xposition Yposition Zposition Zrotation Xrotation Yrotation
	JOINT Model1
	{
		OFFSET 0 -2.25479 2.99384
		CHANNELS 3 Zrotation Xrotation Yrotation
		JOINT Model2
		{
			OFFSET 12.111 0 0
			CHANNELS 3 Zrotation Xrotation Yrotation
			JOINT Model3
			{
				OFFSET 11.5502 0 0
				CHANNELS 3 Zrotation Xrotation Yrotation
				JOINT Model4
				{
					OFFSET 11.781 0 0
					CHANNELS 3 Zrotation Xrotation Yrotation
					JOINT Model5
					{
						OFFSET 20.0601 0 0
						CHANNELS 3 Zrotation Xrotation Yrotation
						JOINT Model6
						{
							OFFSET 11.1962 0 0
							CHANNELS 3 Zrotation Xrotation Yrotation
							End Site
							{
								OFFSET 0 0 0
							}
						}
					}
					JOINT Model7
					{
						OFFSET 10.8223 0.417534 3.51114
						CHANNELS 3 Zrotation Xrotation Yrotation
						JOINT Model8
						{
							OFFSET -6.07944 0 0
							CHANNELS 3 Zrotation Xrotation Yrotation
							JOINT Model9
							{
								OFFSET -0.27742 10.39 -0.051239
								CHANNELS 3 Zrotation Xrotation Yrotation
								JOINT Model10
								{
									OFFSET -3.4391 -0.282043 1.86678
									CHANNELS 3 Zrotation Xrotation Yrotation
									JOINT Model11
									{
										OFFSET 13.0269 0 0
										CHANNELS 3 Zrotation Xrotation Yrotation
										JOINT Model12
										{
											OFFSET 10.8866 0 0
											CHANNELS 3 Zrotation Xrotation Yrotation
											JOINT Model13
											{
												OFFSET 16.7317 0 0
												CHANNELS 3 Zrotation Xrotation Yrotation
												JOINT Model14
												{
													OFFSET 11.8292 0 0
													CHANNELS 3 Zrotation Xrotation Yrotation
													JOINT Model15
													{
														OFFSET 4.82751 -3.73566 -0.836517
														CHANNELS 3 Zrotation Xrotation Yrotation
														JOINT Model16
														{
															OFFSET 3.75311 -0.0582886 -0.0186462
															CHANNELS 3 Zrotation Xrotation Yrotation
															JOINT Model17
															{
																OFFSET 2.88688 0.0192337 0.014801
																CHANNELS 3 Zrotation Xrotation Yrotation
																End Site
																{
																	OFFSET 0 0 0
																}
															}
														}
													}
													JOINT Model18
													{
														OFFSET 9.72197 -3.06458 0.23877
														CHANNELS 3 Zrotation Xrotation Yrotation
														JOINT Model19
														{
															OFFSET 4.61131 0 0
															CHANNELS 3 Zrotation Xrotation Yrotation
															JOINT Model20
															{
																OFFSET 2.8969 -7.62939e-006 0
																CHANNELS 3 Zrotation Xrotation Yrotation
																End Site
																{
																	OFFSET 0 0 0
																}
															}
														}
													}
													JOINT Model21
													{
														OFFSET 9.54431 -0.745064 0.588943
														CHANNELS 3 Zrotation Xrotation Yrotation
														JOINT Model22
														{
															OFFSET 5.33978 0 0
															CHANNELS 3 Zrotation Xrotation Yrotation
															JOINT Model23
															{
																OFFSET 3.03619 7.62939e-006 0
																CHANNELS 3 Zrotation Xrotation Yrotation
																End Site
																{
																	OFFSET 0 0 0
																}
															}
														}
													}
													JOINT Model24
													{
														OFFSET 9.47759 1.51286 0.485123
														CHANNELS 3 Zrotation Xrotation Yrotation
														JOINT Model25
														{
															OFFSET 4.96136 7.62939e-006 0
															CHANNELS 3 Zrotation Xrotation Yrotation
															JOINT Model26
															{
																OFFSET 2.51966 0 0
																CHANNELS 3 Zrotation Xrotation Yrotation
																End Site
																{
																	OFFSET 0 0 0
																}
															}
														}
													}
													JOINT Model27
													{
														OFFSET 9.34247 3.34117 -0.239273
														CHANNELS 3 Zrotation Xrotation Yrotation
														JOINT Model28
														{
															OFFSET 3.2826 2.28882e-005 0
															CHANNELS 3 Zrotation Xrotation Yrotation
															JOINT Model29
															{
																OFFSET 2.1292 0 0
																CHANNELS 3 Zrotation Xrotation Yrotation
																End Site
																{
																	OFFSET 0 0 0
																}
															}
														}
													}
												}
											}
										}
									}
								}
							}
						}
					}
					JOINT Model30
					{
						OFFSET 10.8223 0.4179 -3.51106
						CHANNELS 3 Zrotation Xrotation Yrotation
						JOINT Model31
						{
							OFFSET 6.07944 0 0
							CHANNELS 3 Zrotation Xrotation Yrotation
							JOINT Model32
							{
								OFFSET 0.27742 -10.39 0.051239
								CHANNELS 3 Zrotation Xrotation Yrotation
								JOINT Model33
								{
									OFFSET 3.4391 0.282043 -1.86678
									CHANNELS 3 Zrotation Xrotation Yrotation
									JOINT Model34
									{
										OFFSET -13.0269 0 0
										CHANNELS 3 Zrotation Xrotation Yrotation
										JOINT Model35
										{
											OFFSET -10.8866 0 0
											CHANNELS 3 Zrotation Xrotation Yrotation
											JOINT Model36
											{
												OFFSET -16.7317 0 0
												CHANNELS 3 Zrotation Xrotation Yrotation
												JOINT Model37
												{
													OFFSET -11.8292 0 0
													CHANNELS 3 Zrotation Xrotation Yrotation
													JOINT Model38
													{
														OFFSET -4.82751 3.73566 0.836517
														CHANNELS 3 Zrotation Xrotation Yrotation
														JOINT Model39
														{
															OFFSET -3.75311 0.0582886 0.0186462
															CHANNELS 3 Zrotation Xrotation Yrotation
															JOINT Model40
															{
																OFFSET -2.88689 -0.0192337 -0.014801
																CHANNELS 3 Zrotation Xrotation Yrotation
																End Site
																{
																	OFFSET 0 0 0
																}
															}
														}
													}
													JOINT Model41
													{
														OFFSET -9.72197 3.06459 -0.23877
														CHANNELS 3 Zrotation Xrotation Yrotation
														JOINT Model42
														{
															OFFSET -4.6113 0 0
															CHANNELS 3 Zrotation Xrotation Yrotation
															JOINT Model43
															{
																OFFSET -2.8969 0 0
																CHANNELS 3 Zrotation Xrotation Yrotation
																End Site
																{
																	OFFSET 0 0 0
																}
															}
														}
													}
													JOINT Model44
													{
														OFFSET -9.5443 0.745064 -0.588943
														CHANNELS 3 Zrotation Xrotation Yrotation
														JOINT Model45
														{
															OFFSET -5.33978 0 0
															CHANNELS 3 Zrotation Xrotation Yrotation
															JOINT Model46
															{
																OFFSET -3.03619 -1.52588e-005 0
																CHANNELS 3 Zrotation Xrotation Yrotation
																End Site
																{
																	OFFSET 0 0 0
																}
															}
														}
													}
													JOINT Model47
													{
														OFFSET -9.47758 -1.51286 -0.485123
														CHANNELS 3 Zrotation Xrotation Yrotation
														JOINT Model48
														{
															OFFSET -4.96136 -1.52588e-005 0
															CHANNELS 3 Zrotation Xrotation Yrotation
															JOINT Model49
															{
																OFFSET -2.51965 0 0
																CHANNELS 3 Zrotation Xrotation Yrotation
																End Site
																{
																	OFFSET 0 0 0
																}
															}
														}
													}
													JOINT Model50
													{
														OFFSET -9.34245 -3.34118 0.239273
														CHANNELS 3 Zrotation Xrotation Yrotation
														JOINT Model51
														{
															OFFSET -3.28259 -2.28882e-005 0
															CHANNELS 3 Zrotation Xrotation Yrotation
															JOINT Model52
															{
																OFFSET -2.1292 0 0
																CHANNELS 3 Zrotation Xrotation Yrotation
																End Site
																{
																	OFFSET 0 0 0
																}
															}
														}
													}
												}
											}
										}
									}
								}
							}
						}
					}
				}
			}
		}
	}
	JOINT Model53
	{
		OFFSET 4.38026 -2.14632 -1.11516
		CHANNELS 3 Zrotation Xrotation Yrotation
		JOINT Model54
		{
			OFFSET 0 0 4.95
			CHANNELS 3 Zrotation Xrotation Yrotation
			JOINT Model55
			{
				OFFSET 18.5642 0 0
				CHANNELS 3 Zrotation Xrotation Yrotation
				JOINT Model56
				{
					OFFSET 21.2884 0 1.52588e-005
					CHANNELS 3 Zrotation Xrotation Yrotation
					JOINT Model57
					{
						OFFSET 30.261 0 0
						CHANNELS 3 Zrotation Xrotation Yrotation
						JOINT Model58
						{
							OFFSET 11.7259 0 0
							CHANNELS 3 Zrotation Xrotation Yrotation
							JOINT Model59
							{
								OFFSET 10.682 0 0
								CHANNELS 3 Zrotation Xrotation Yrotation
								End Site
								{
									OFFSET 0 0 0
								}
							}
						}
					}
				}
			}
		}
	}
	JOINT Model60
	{
		OFFSET -4.38026 -2.14632 -1.11516
		CHANNELS 3 Zrotation Xrotation Yrotation
		JOINT Model61
		{
			OFFSET 0 0 -4.95
			CHANNELS 3 Zrotation Xrotation Yrotation
			JOINT Model62
			{
				OFFSET -18.5642 0 0
				CHANNELS 3 Zrotation Xrotation Yrotation
				JOINT Model63
				{
					OFFSET -21.2884 0 -1.52588e-005
					CHANNELS 3 Zrotation Xrotation Yrotation
					JOINT Model64
					{
						OFFSET -30.261 0 0
						CHANNELS 3 Zrotation Xrotation Yrotation
						JOINT Model65
						{
							OFFSET -11.7259 0 0
							CHANNELS 3 Zrotation Xrotation Yrotation
							JOINT Model66
							{
								OFFSET -10.682 0 0
								CHANNELS 3 Zrotation Xrotation Yrotation
								End Site
								{
									OFFSET 0 0 0
								}
							}
						}
					}
				}
			}
		}
	}
}
MOTION
Frames: 4
Frame Time: 0.033333
-279.623 162.357 -203.619 100.546 3.33726 89.7227 -180 4.29621e-031 -90 1.88879 -0.239062 -0.325452 3.77625 -0.489154 -0.642857 3.77624 -0.488717 -0.642885 25.3989 4.32634 6.20153 -26.1396 3.70919 2.38353 120.092 75.5343 58.4939 15.5262 11.9537 -0.246556 -167.277 84.4999 48.8109 -162.535 -8.48985 -38.6503 -8.57636e-006 41.0557 4.24383e-005 -38.4158 -13.5904 0.390325 -2.10407e-006 -20.971 -2.76976e-006 21.5418 -1.40518 -7.37674 -72.0648 39.0385 39.3397 33.3638 2.10362 14.835 0.588947 0.308273 6.35287 -99.6409 81.413 100.35 -0.0181409 2.76876e-005 -0.117315 -0.124139 0.002411 -0.799296 -79.8382 79.5773 80.5374 -0.000225772 -0.000220999 2.2183e-005 -0.00095622 0.000122791 -2.73361e-005 -66.7416 80.4058 67.2171 -0.000437128 1.58582e-005 -2.73326e-005 -0.000136598 -0.000109409 -5.46575e-005 -6.42159 81.2158 8.01779 -0.000218574 1.66992e-005 0.00021213 0.000901574 -0.000185084 -0.00021858 -59.9282 75.5373 58.5147 2.63213 -9.42054 -2.87587 -167.277 84.4999 48.8109 169.988 -26.4989 -28.5133 1.14253e-005 -7.94323 2.77753e-005 -44.8061 14.0841 0.441669 -8.58626e-006 20.4947 4.10638e-006 29.6786 3.27435 12.3146 -72.0648 39.0385 39.3397 33.3638 2.10361 14.835 0.588946 0.308273 6.35287 -99.6409 81.413 100.35 -0.0181409 3.02268e-005 -0.117315 -0.124139 0.00241134 -0.799296 -79.8382 79.5773 80.5374 -0.000260654 -0.000218446 2.35919e-005 -0.000956237 0.000123159 -2.72917e-005 -66.7416 80.4058 67.2171 -0.000437138 1.50253e-005 -2.72974e-005 -0.000136612 -0.000109089 -5.461e-005 -6.42159 81.2158 8.01779 -0.000218551 1.9773e-005 0.000212305 0.000901604 -0.000190983 -0.000218555 0.000811311 0.56661 89.91 -14.5478 3.04475 -9.80042 4.16651e-006 10.8907 -3.80248e-007 52.9297 -6.30246 -0.00676577 -3.16115e-007 -9.54967 -3.26732e-007 -73.4736 -15.5651 6.36 -35.4947 5.05654e-007 8.81262e-008 -180 -0.566579 -90.09 -16.6077 -1.14329 -6.1093 7.99689e-007 2.07814 -4.3134e-009 56.56 -5.31488 -0.00681895 1.74214e-007 -8.07341 -5.08054e-007 -79.5928 -9.22588 2.52811 -35.4947 -4.53641e-008 2.49023e-008 
-279.717 162.354 -202.909 100.376 3.40644 89.722 -180 4.29621e-031 -90 1.90908 -0.202762 -0.309625 3.81706 -0.416159 -0.612332 3.81706 -0.415723 -0.612361 25.101 4.17992 5.32392 -25.752 3.32763 3.21301 120.092 75.5343 58.4939 15.0362 12.3392 -0.0507681 -167.277 84.4999 48.8109 -162.364 -8.87682 -38.0496 -7.7354e-006 40.1883 4.18908e-005 -38.5702 -13.38 0.391288 -2.08784e-006 -20.6568 -2.76399e-006 21.3141 -1.41787 -7.52468 -72.0648 39.0385 39.3397 33.3638 2.10362 14.835 0.588947 0.308273 6.35287 -99.6409 81.413 100.35 -0.0181409 2.76876e-005 -0.117315 -0.124139 0.002411 -0.799296 -79.8382 79.5773 80.5374 -0.000225772 -0.000220999 2.2183e-005 -0.00095622 0.000122791 -2.73361e-005 -66.7416 80.4058 67.2171 -0.000437128 1.58582e-005 -2.73326e-005 -0.000136598 -0.000109409 -5.46575e-005 -6.42159 81.2158 8.01779 -0.000218574 1.66992e-005 0.00021213 0.000901574 -0.000185084 -0.00021858 -59.9282 75.5373 58.5147 2.70164 -9.00028 -2.75749 -167.277 84.4999 48.8109 170.312 -26.4807 -28.1501 1.13949e-005 -7.88115 2.77711e-005 -44.8811 13.5968 0.441357 -8.53055e-006 19.7632 4.0872e-006 29.9739 3.17938 11.8377 -72.0648 39.0385 39.3397 33.3638 2.10361 14.835 0.588946 0.308273 6.35287 -99.6409 81.413 100.35 -0.0181409 3.02268e-005 -0.117315 -0.124139 0.00241134 -0.799296 -79.8382 79.5773 80.5374 -0.000260654 -0.000218446 2.35919e-005 -0.000956237 0.000123159 -2.72917e-005 -66.7416 80.4058 67.2171 -0.000437138 1.50253e-005 -2.72974e-005 -0.000136612 -0.000109089 -5.461e-005 -6.42159 81.2158 8.01779 -0.000218551 1.9773e-005 0.000212305 0.000901604 -0.000190983 -0.000218555 0.000811311 0.56661 89.91 -15.2236 2.2695 -10.9881 4.16305e-006 10.3776 -3.79609e-007 52.9073 -5.56403 -0.00675211 -3.0973e-007 -8.44199 -3.25734e-007 -73.0674 -14.9699 6.15108 -35.4947 5.01119e-007 9.32817e-008 -180 -0.566579 -90.09 -16.8797 -1.1017 -5.66066 7.99671e-007 1.84536 -4.3128e-009 56.6848 -5.31504 -0.0068007 1.7421e-007 -8.07381 -5.08055e-007 -79.6059 -9.3941 2.59628 -35.4947 -4.47174e-008 2.7022e-008 
-279.869 162.365 -202.008 100.109 3.55506 89.5925 -180 4.29621e-031 -90 1.92747 -0.169087 -0.31711 3.85399 -0.34918 -0.628356 3.85399 -0.348744 -0.628386 24.9106 4.04001 4.61195 -25.5496 2.99222 3.88469 120.092 75.5343 58.4939 14.4818 12.6788 0.157102 -167.277 84.4999 48.8109 -162.299 -9.05492 -37.4671 -7.12848e-006 39.5482 4.15018e-005 -38.712 -13.0726 0.391776 -2.0642e-006 -20.1969 -2.75574e-006 21.043 -1.41848 -7.62645 -72.0648 39.0385 39.3397 33.3638 2.10362 14.835 0.588947 0.308273 6.35287 -99.6409 81.413 100.35 -0.0181409 2.76876e-005 -0.117315 -0.124139 0.002411 -0.799296 -79.8382 79.5773 80.5374 -0.000225772 -0.000220999 2.2183e-005 -0.00095622 0.000122791 -2.73361e-005 -66.7416 80.4058 67.2171 -0.000437128 1.58582e-005 -2.73326e-005 -0.000136598 -0.000109409 -5.46575e-005 -6.42159 81.2158 8.01779 -0.000218574 1.66992e-005 0.00021213 0.000901574 -0.000185084 -0.00021858 -59.9282 75.5373 58.5147 2.6196 -8.34461 -2.55663 -167.277 84.4999 48.8109 170.887 -26.5777 -27.7538 1.13984e-005 -7.88824 2.77716e-005 -45.1548 13.1946 0.442755 -8.48487e-006 19.1582 4.07198e-006 30.0788 3.11443 11.5546 -72.0648 39.0385 39.3397 33.3638 2.10361 14.835 0.588946 0.308273 6.35287 -99.6409 81.413 100.35 -0.0181409 3.02268e-005 -0.117315 -0.124139 0.00241134 -0.799296 -79.8382 79.5773 80.5374 -0.000260654 -0.000218446 2.35919e-005 -0.000956237 0.000123159 -2.72917e-005 -66.7416 80.4058 67.2171 -0.000437138 1.50253e-005 -2.72974e-005 -0.000136612 -0.000109089 -5.461e-005 -6.42159 81.2158 8.01779 -0.000218551 1.9773e-005 0.000212305 0.000901604 -0.000190983 -0.000218555 0.000811311 0.56661 89.91 -16.1281 1.62644 -12.0605 4.16004e-006 9.92997 -3.79079e-007 52.8825 -4.8385 -0.00673887 -3.03491e-007 -7.35367 -3.24877e-007 -72.2807 -14.0114 5.82922 -35.4947 4.9285e-007 9.99201e-008 -180 -0.566579 -90.09 -17.3217 -1.16262 -5.28891 7.99645e-007 1.49423 -4.31203e-009 56.8556 -5.31283 -0.00678138 1.74238e-007 -8.0707 -5.08051e-007 -79.7295 -9.2385 2.51624 -35.4947 -4.29023e-008 3.03542e-008 
-280.043 162.408 -201.273 99.8238 3.77432 89.2745 -180 4.29621e-031 -90 1.93475 -0.162439 -0.362752 3.86846 -0.337467 -0.719818 3.86846 -0.337031 -0.719847 25.013 3.96424 4.58576 -25.805 2.8968 3.90407 120.092 75.5343 58.4939 14.1083 12.7464 0.270523 -167.277 84.4999 48.8109 -162.416 -8.83533 -37.2498 -7.18513e-006 39.6085 4.15379e-005 -38.7783 -12.8117 0.391931 -2.04422e-006 -19.8061 -2.7489e-006 20.8791 -1.4016 -7.59632 -72.0648 39.0385 39.3397 33.3638 2.10362 14.835 0.588947 0.308273 6.35287 -99.6409 81.413 100.35 -0.0181409 2.76876e-005 -0.117315 -0.124139 0.002411 -0.799296 -79.8382 79.5773 80.5374 -0.000225772 -0.000220999 2.2183e-005 -0.00095622 0.000122791 -2.73361e-005 -66.7416 80.4058 67.2171 -0.000437128 1.58582e-005 -2.73326e-005 -0.000136598 -0.000109409 -5.46575e-005 -6.42159 81.2158 8.01779 -0.000218574 1.66992e-005 0.00021213 0.000901574 -0.000185084 -0.00021858 -59.9282 75.5373 58.5147 2.4026 -7.56151 -2.3045 -167.277 84.4999 48.8109 171.662 -26.8311 -27.4832 1.14523e-005 -7.99849 2.77791e-005 -45.5355 13.2187 0.445719 -8.48742e-006 19.1921 4.07282e-006 30.0157 3.16562 11.7694 -72.0648 39.0385 39.3397 33.3638 2.10361 14.835 0.588946 0.308273 6.35287 -99.6409 81.413 100.35 -0.0181409 3.02268e-005 -0.117315 -0.124139 0.00241134 -0.799296 -79.8382 79.5773 80.5374 -0.000260654 -0.000218446 2.35919e-005 -0.000956237 0.000123159 -2.72917e-005 -66.7416 80.4058 67.2171 -0.000437138 1.50253e-005 -2.72974e-005 -0.000136612 -0.000109089 -5.461e-005 -6.42159 81.2158 8.01779 -0.000218551 1.9773e-005 0.000212305 0.000901604 -0.000190983 -0.000218555 0.000811311 0.56661 89.91 -16.8458 1.64034 -12.2265 4.15998e-006 9.92051 -3.79068e-007 52.8315 -4.63178 -0.00673058 -3.01719e-007 -7.04351 -3.24655e-007 -71.1346 -13.3926 5.72894 -35.4947 4.81153e-007 1.0792e-007 -180 -0.566579 -90.09 -17.7863 -1.29917 -5.22063 7.99624e-007 1.21223 -4.31153e-009 57.0052 -5.37327 -0.00676179 1.73424e-007 -8.16156 -5.08166e-007 -79.9738 -8.84378 2.32317 -35.4947 -4.00175e-008 3.47964e-008 
